<mxfile host="app.diagrams.net" modified="2022-02-11T02:22:14.974Z" agent="5.0 (Macintosh; Intel Mac OS X 10_15_7) AppleWebKit/605.1.15 (KHTML, like Gecko) Version/14.1.1 Safari/605.1.15" etag="QXZxmYgMUl09RMvEEDEe" version="16.5.3" type="github">
  <diagram id="hlCp7ZfxO3Q00JEF_Im2" name="Page-1">
    <mxGraphModel dx="1228" dy="1025" grid="1" gridSize="10" guides="1" tooltips="1" connect="1" arrows="1" fold="1" page="1" pageScale="1" pageWidth="827" pageHeight="1169" math="0" shadow="0">
      <root>
        <mxCell id="0" />
        <mxCell id="1" parent="0" />
        <mxCell id="IHRSCUWutjqTrrbZi6x7-2" value="array" style="swimlane;" vertex="1" parent="1">
          <mxGeometry x="94" y="190" width="639" height="120" as="geometry" />
        </mxCell>
        <mxCell id="IHRSCUWutjqTrrbZi6x7-3" value="0&lt;br&gt;整数" style="rounded=0;whiteSpace=wrap;html=1;fillColor=#dae8fc;strokeColor=#6c8ebf;sketch=1;" vertex="1" parent="IHRSCUWutjqTrrbZi6x7-2">
          <mxGeometry x="19" y="70" width="120" height="40" as="geometry" />
        </mxCell>
        <mxCell id="IHRSCUWutjqTrrbZi6x7-4" value="0&lt;br&gt;整数" style="rounded=0;whiteSpace=wrap;html=1;fillColor=#d5e8d4;strokeColor=#82b366;sketch=1;" vertex="1" parent="IHRSCUWutjqTrrbZi6x7-2">
          <mxGeometry x="139" y="70" width="120" height="40" as="geometry" />
        </mxCell>
        <mxCell id="IHRSCUWutjqTrrbZi6x7-5" value="0&lt;br&gt;整数" style="rounded=0;whiteSpace=wrap;html=1;fillColor=#fff2cc;strokeColor=#d6b656;sketch=1;" vertex="1" parent="IHRSCUWutjqTrrbZi6x7-2">
          <mxGeometry x="259" y="70" width="120" height="40" as="geometry" />
        </mxCell>
        <mxCell id="IHRSCUWutjqTrrbZi6x7-6" value="0&lt;br&gt;整数" style="rounded=0;whiteSpace=wrap;html=1;fillColor=#ffe6cc;strokeColor=#d79b00;sketch=1;" vertex="1" parent="IHRSCUWutjqTrrbZi6x7-2">
          <mxGeometry x="379" y="70" width="120" height="40" as="geometry" />
        </mxCell>
        <mxCell id="IHRSCUWutjqTrrbZi6x7-7" value="0&lt;br&gt;整数" style="rounded=0;whiteSpace=wrap;html=1;fillColor=#e1d5e7;strokeColor=#9673a6;sketch=1;" vertex="1" parent="IHRSCUWutjqTrrbZi6x7-2">
          <mxGeometry x="499" y="70" width="120" height="40" as="geometry" />
        </mxCell>
        <mxCell id="IHRSCUWutjqTrrbZi6x7-8" value="[0]" style="text;html=1;strokeColor=none;fillColor=none;align=center;verticalAlign=middle;whiteSpace=wrap;rounded=0;sketch=1;" vertex="1" parent="IHRSCUWutjqTrrbZi6x7-2">
          <mxGeometry x="49" y="30" width="60" height="30" as="geometry" />
        </mxCell>
        <mxCell id="IHRSCUWutjqTrrbZi6x7-9" value="[1]" style="text;html=1;strokeColor=none;fillColor=none;align=center;verticalAlign=middle;whiteSpace=wrap;rounded=0;sketch=1;" vertex="1" parent="IHRSCUWutjqTrrbZi6x7-2">
          <mxGeometry x="169" y="30" width="60" height="30" as="geometry" />
        </mxCell>
        <mxCell id="IHRSCUWutjqTrrbZi6x7-10" value="[2]" style="text;html=1;strokeColor=none;fillColor=none;align=center;verticalAlign=middle;whiteSpace=wrap;rounded=0;sketch=1;" vertex="1" parent="IHRSCUWutjqTrrbZi6x7-2">
          <mxGeometry x="283" y="30" width="60" height="30" as="geometry" />
        </mxCell>
        <mxCell id="IHRSCUWutjqTrrbZi6x7-11" value="[3]" style="text;html=1;strokeColor=none;fillColor=none;align=center;verticalAlign=middle;whiteSpace=wrap;rounded=0;sketch=1;" vertex="1" parent="IHRSCUWutjqTrrbZi6x7-2">
          <mxGeometry x="409" y="30" width="60" height="30" as="geometry" />
        </mxCell>
        <mxCell id="IHRSCUWutjqTrrbZi6x7-12" value="[4]" style="text;html=1;strokeColor=none;fillColor=none;align=center;verticalAlign=middle;whiteSpace=wrap;rounded=0;sketch=1;" vertex="1" parent="IHRSCUWutjqTrrbZi6x7-2">
          <mxGeometry x="529" y="30" width="60" height="30" as="geometry" />
        </mxCell>
      </root>
    </mxGraphModel>
  </diagram>
</mxfile>
